<svg xmlns="http://www.w3.org/2000/svg" xmlns:xlink="http://www.w3.org/1999/xlink" width="70" height="70"><defs><path id="a" d="M4 0h61c4 0 5 1 5 5v60c0 4-1 5-5 5H4c-3 0-4-1-4-5V5c0-4 1-5 4-5z"/><linearGradient id="c" x1="100%" x2="0%" y1="0%" y2="100%"><stop offset="0%" stop-color="#CD7690"/><stop offset="100%" stop-color="#CA5377"/></linearGradient><path id="d" d="M53 41.498a10.134 10.134 0 0 0-3-.833V27H40c-2 0-3-1-3-3v-7H21v38h18.498a10.224 10.224 0 0 0 2.073 3H20c-1.333 0-2-.667-2-2V16c0-1.333.667-2 2-2h20c2 1 10 7 13 9v18.498zM40 17v7h10l-10-7zm2.703 18.608v1.56c0 .368-.434.67-.963.67H28.26c-.53 0-.963-.302-.963-.67v-1.56c0-.368.434-.669.963-.669h13.48c.53 0 .963.301.963.669zm-.963 5.275c.53 0 .963.3.963.669V42c0 .64-1.173 1.781-1.703 1.781H28.26c-.53 0-.963-.3-.963-.669v-1.56c0-.368.434-.67.963-.67h13.48zM39 47c.259 0 .124.969-.405 2.906H28.003c-.388 0-.706-.3-.706-.669v-1.56c0-.368.318-.67.706-.67L39 47zm16.145 5.143l1.388.8c.158.092.232.28.177.456a8.06 8.06 0 0 1-1.78 3.079.391.391 0 0 1-.483.073l-1.386-.8c-.583.499-1.254.887-1.978 1.143v1.6a.391.391 0 0 1-.305.382 8.137 8.137 0 0 1-3.555 0 .391.391 0 0 1-.306-.381v-1.601a6.236 6.236 0 0 1-1.978-1.144l-1.386.8a.391.391 0 0 1-.483-.072 8.06 8.06 0 0 1-1.78-3.08.391.391 0 0 1 .177-.455l1.388-.8a6.298 6.298 0 0 1 0-2.286l-1.388-.8a.391.391 0 0 1-.177-.456 8.06 8.06 0 0 1 1.78-3.079.391.391 0 0 1 .483-.073l1.386.8a6.236 6.236 0 0 1 1.978-1.143v-1.6c0-.184.126-.342.305-.382a8.137 8.137 0 0 1 3.555 0c.179.04.306.198.306.381v1.601a6.236 6.236 0 0 1 1.978 1.144l1.386-.8a.391.391 0 0 1 .483.072 8.06 8.06 0 0 1 1.78 3.08.391.391 0 0 1-.177.455l-1.388.8c.14.756.14 1.53 0 2.286zM51.605 51A2.607 2.607 0 0 0 49 48.396 2.607 2.607 0 0 0 46.396 51 2.607 2.607 0 0 0 49 53.604 2.607 2.607 0 0 0 51.604 51z"/><path id="e" d="M53 39.498a10.134 10.134 0 0 0-3-.833V25H40c-2 0-3-1-3-3v-7H21v38h18.498a10.224 10.224 0 0 0 2.073 3H20c-1.333 0-2-.667-2-2V14c0-1.333.667-2 2-2h20c2 1 10 7 13 9v18.498zM40 15v7h10l-10-7zm2.703 18.608v1.56c0 .368-.434.67-.963.67H28.26c-.53 0-.963-.302-.963-.67v-1.56c0-.368.434-.669.963-.669h13.48c.53 0 .963.301.963.669zm-.963 5.275c.53 0 .963.3.963.669V40c0 .64-1.173 1.781-1.703 1.781H28.26c-.53 0-.963-.3-.963-.669v-1.56c0-.368.434-.67.963-.67h13.48zM39 45c.259 0 .124.969-.405 2.906H28.003c-.388 0-.706-.3-.706-.669v-1.56c0-.368.318-.67.706-.67L39 45zm16.145 5.143l1.388.8c.158.092.232.28.177.456a8.06 8.06 0 0 1-1.78 3.079.391.391 0 0 1-.483.073l-1.386-.8c-.583.499-1.254.887-1.978 1.143v1.6a.391.391 0 0 1-.305.382 8.137 8.137 0 0 1-3.555 0 .391.391 0 0 1-.306-.381v-1.601a6.236 6.236 0 0 1-1.978-1.144l-1.386.8a.391.391 0 0 1-.483-.072 8.06 8.06 0 0 1-1.78-3.08.391.391 0 0 1 .177-.455l1.388-.8a6.298 6.298 0 0 1 0-2.286l-1.388-.8a.391.391 0 0 1-.177-.456 8.06 8.06 0 0 1 1.78-3.079.391.391 0 0 1 .483-.073l1.386.8a6.236 6.236 0 0 1 1.978-1.143v-1.6c0-.184.126-.342.305-.382a8.137 8.137 0 0 1 3.555 0c.179.04.306.198.306.381v1.601a6.236 6.236 0 0 1 1.978 1.144l1.386-.8a.391.391 0 0 1 .483.072 8.06 8.06 0 0 1 1.78 3.08.391.391 0 0 1-.177.455l-1.388.8c.14.756.14 1.53 0 2.286zM51.605 49A2.607 2.607 0 0 0 49 46.396 2.607 2.607 0 0 0 46.396 49 2.607 2.607 0 0 0 49 51.604 2.607 2.607 0 0 0 51.604 49z"/></defs><g fill="none" fill-rule="evenodd"><mask id="b" fill="#fff"><use xlink:href="#a"/></mask><g mask="url(#b)"><path fill="url(#c)" d="M0 0H70V70H0z"/><path fill="#FFF" fill-opacity=".383" d="M4 1h61c2.667 0 4.333.667 5 2V0H0v3c.667-1.333 2-2 4-2z"/><path fill="#393939" d="M41.344 69H4c-2 0-4-1-4-4V28.855L18.213 13H39c4.398 3.978 9.065 7.032 14 9.164a1793.6 1793.6 0 0 1 0 22.4l3.697 2.272-2.494 3.96.69 3.572L41.344 69z" opacity=".324"/><path fill="#000" fill-opacity=".383" d="M4 69h61c2.667 0 4.333-1 5-3v4H0v-4c.667 2 2 3 4 3z"/><use fill="#000" fill-rule="nonzero" opacity=".3" xlink:href="#d"/><use fill="#FFF" fill-rule="nonzero" xlink:href="#e"/></g></g></svg>